<mxfile host="app.diagrams.net" modified="2022-06-06T04:48:32.321Z" agent="5.0 (Windows NT 10.0; Win64; x64) AppleWebKit/537.36 (KHTML, like Gecko) Chrome/102.0.0.0 Safari/537.36" etag="fVqhqu4XH15RfKUmsWD5" version="19.0.0" type="github">
  <diagram name="Page-1" id="74e2e168-ea6b-b213-b513-2b3c1d86103e">
    <mxGraphModel dx="2152" dy="1952" grid="1" gridSize="10" guides="1" tooltips="1" connect="1" arrows="1" fold="1" page="1" pageScale="1" pageWidth="1100" pageHeight="850" background="none" math="0" shadow="0">
      <root>
        <mxCell id="0" />
        <mxCell id="1" parent="0" />
        <mxCell id="77e6c97f196da883-1" value="Pool" style="swimlane;html=1;childLayout=stackLayout;startSize=20;rounded=0;shadow=0;labelBackgroundColor=none;strokeWidth=1;fontFamily=Verdana;fontSize=8;align=center;" parent="1" vertex="1">
          <mxGeometry x="70" y="-90" width="5110" height="6850" as="geometry" />
        </mxCell>
        <mxCell id="77e6c97f196da883-2" value="&lt;pre style=&quot;background-color: rgb(255, 255, 255); font-family: Consolas; font-size: 16.5pt;&quot;&gt;FileSystemXmlApplicationContext&lt;/pre&gt;" style="swimlane;html=1;startSize=30;" parent="77e6c97f196da883-1" vertex="1">
          <mxGeometry y="20" width="480" height="6830" as="geometry" />
        </mxCell>
        <mxCell id="77e6c97f196da883-8" value="&lt;pre style=&quot;background-color: rgb(255, 255, 255); font-family: Consolas; font-size: 16.5pt;&quot;&gt;refresh()&lt;/pre&gt;" style="rounded=1;whiteSpace=wrap;html=1;shadow=0;labelBackgroundColor=none;strokeWidth=1;fontFamily=Verdana;fontSize=8;align=center;" parent="77e6c97f196da883-2" vertex="1">
          <mxGeometry x="110" y="160" width="170" height="60" as="geometry" />
        </mxCell>
        <mxCell id="77e6c97f196da883-26" style="edgeStyle=orthogonalEdgeStyle;rounded=1;html=1;labelBackgroundColor=none;startArrow=none;startFill=0;startSize=5;endArrow=classicThin;endFill=1;endSize=5;jettySize=auto;orthogonalLoop=1;strokeWidth=1;fontFamily=Verdana;fontSize=8;entryX=0;entryY=0.5;entryDx=0;entryDy=0;" parent="77e6c97f196da883-1" source="77e6c97f196da883-8" target="O03f3KoqR2Wf6FTzpScs-3" edge="1">
          <mxGeometry relative="1" as="geometry">
            <mxPoint x="765" y="115" as="targetPoint" />
          </mxGeometry>
        </mxCell>
        <mxCell id="77e6c97f196da883-39" style="edgeStyle=orthogonalEdgeStyle;rounded=1;html=1;labelBackgroundColor=none;startArrow=none;startFill=0;startSize=5;endArrow=classicThin;endFill=1;endSize=5;jettySize=auto;orthogonalLoop=1;strokeWidth=1;fontFamily=Verdana;fontSize=8" parent="77e6c97f196da883-1" target="77e6c97f196da883-23" edge="1">
          <mxGeometry relative="1" as="geometry">
            <mxPoint x="1170" y="690" as="sourcePoint" />
          </mxGeometry>
        </mxCell>
        <mxCell id="77e6c97f196da883-40" style="edgeStyle=orthogonalEdgeStyle;rounded=1;html=1;labelBackgroundColor=none;startArrow=none;startFill=0;startSize=5;endArrow=classicThin;endFill=1;endSize=5;jettySize=auto;orthogonalLoop=1;strokeWidth=1;fontFamily=Verdana;fontSize=8" parent="77e6c97f196da883-1" target="77e6c97f196da883-24" edge="1">
          <mxGeometry relative="1" as="geometry">
            <mxPoint x="1340" y="690" as="sourcePoint" />
          </mxGeometry>
        </mxCell>
        <mxCell id="107ba76e4e335f99-3" style="edgeStyle=orthogonalEdgeStyle;rounded=1;html=1;labelBackgroundColor=none;startArrow=none;startFill=0;startSize=5;endArrow=classicThin;endFill=1;endSize=5;jettySize=auto;orthogonalLoop=1;strokeColor=#000000;strokeWidth=1;fontFamily=Verdana;fontSize=8;fontColor=#000000;" parent="77e6c97f196da883-1" source="77e6c97f196da883-22" edge="1">
          <mxGeometry relative="1" as="geometry">
            <mxPoint x="1180" y="610" as="targetPoint" />
          </mxGeometry>
        </mxCell>
        <mxCell id="77e6c97f196da883-3" value="&lt;pre style=&quot;background-color: rgb(255, 255, 255); font-family: Consolas; font-size: 16.5pt;&quot;&gt;AbstractApplicationContext&lt;/pre&gt;" style="swimlane;html=1;startSize=30;" parent="77e6c97f196da883-1" vertex="1">
          <mxGeometry x="480" y="20" width="1410" height="6830" as="geometry" />
        </mxCell>
        <mxCell id="O03f3KoqR2Wf6FTzpScs-29" style="edgeStyle=orthogonalEdgeStyle;rounded=0;orthogonalLoop=1;jettySize=auto;html=1;" edge="1" parent="77e6c97f196da883-3" source="O03f3KoqR2Wf6FTzpScs-3" target="O03f3KoqR2Wf6FTzpScs-24">
          <mxGeometry relative="1" as="geometry" />
        </mxCell>
        <mxCell id="O03f3KoqR2Wf6FTzpScs-57" style="edgeStyle=orthogonalEdgeStyle;rounded=0;orthogonalLoop=1;jettySize=auto;html=1;entryX=0;entryY=0.5;entryDx=0;entryDy=0;" edge="1" parent="77e6c97f196da883-3" source="O03f3KoqR2Wf6FTzpScs-3" target="O03f3KoqR2Wf6FTzpScs-49">
          <mxGeometry relative="1" as="geometry" />
        </mxCell>
        <mxCell id="O03f3KoqR2Wf6FTzpScs-3" value="&lt;pre style=&quot;background-color: rgb(255, 255, 255); font-family: Consolas; font-size: 16.5pt;&quot;&gt;&lt;pre style=&quot;font-family: Consolas; font-size: 16.5pt;&quot;&gt;prepareRefresh()&lt;/pre&gt;&lt;/pre&gt;" style="rounded=1;whiteSpace=wrap;html=1;shadow=0;labelBackgroundColor=none;strokeWidth=1;fontFamily=Verdana;fontSize=8;align=center;" vertex="1" parent="77e6c97f196da883-3">
          <mxGeometry x="255" y="160" width="210" height="60" as="geometry" />
        </mxCell>
        <mxCell id="O03f3KoqR2Wf6FTzpScs-30" style="edgeStyle=orthogonalEdgeStyle;rounded=0;orthogonalLoop=1;jettySize=auto;html=1;" edge="1" parent="77e6c97f196da883-3" source="O03f3KoqR2Wf6FTzpScs-24" target="O03f3KoqR2Wf6FTzpScs-25">
          <mxGeometry relative="1" as="geometry" />
        </mxCell>
        <mxCell id="O03f3KoqR2Wf6FTzpScs-169" style="edgeStyle=orthogonalEdgeStyle;rounded=0;orthogonalLoop=1;jettySize=auto;html=1;entryX=0;entryY=0.5;entryDx=0;entryDy=0;" edge="1" parent="77e6c97f196da883-3" source="O03f3KoqR2Wf6FTzpScs-24" target="O03f3KoqR2Wf6FTzpScs-105">
          <mxGeometry relative="1" as="geometry" />
        </mxCell>
        <mxCell id="O03f3KoqR2Wf6FTzpScs-24" value="&lt;pre style=&quot;background-color: rgb(255, 255, 255); font-family: Consolas; font-size: 16.5pt;&quot;&gt;&lt;pre style=&quot;font-family: Consolas; font-size: 16.5pt;&quot;&gt;obtainFreshBeanFactory()&lt;/pre&gt;&lt;/pre&gt;" style="rounded=1;whiteSpace=wrap;html=1;shadow=0;labelBackgroundColor=none;strokeWidth=1;fontFamily=Verdana;fontSize=8;align=center;" vertex="1" parent="77e6c97f196da883-3">
          <mxGeometry x="195" y="320" width="330" height="60" as="geometry" />
        </mxCell>
        <mxCell id="O03f3KoqR2Wf6FTzpScs-31" style="edgeStyle=orthogonalEdgeStyle;rounded=0;orthogonalLoop=1;jettySize=auto;html=1;entryX=0.521;entryY=0.032;entryDx=0;entryDy=0;entryPerimeter=0;" edge="1" parent="77e6c97f196da883-3" source="O03f3KoqR2Wf6FTzpScs-25" target="O03f3KoqR2Wf6FTzpScs-26">
          <mxGeometry relative="1" as="geometry" />
        </mxCell>
        <mxCell id="O03f3KoqR2Wf6FTzpScs-25" value="&lt;pre style=&quot;background-color: rgb(255, 255, 255); font-family: Consolas; font-size: 16.5pt;&quot;&gt;&lt;pre style=&quot;font-family: Consolas; font-size: 16.5pt;&quot;&gt;prepareBeanFactory(beanFactory)&lt;/pre&gt;&lt;/pre&gt;" style="rounded=1;whiteSpace=wrap;html=1;shadow=0;labelBackgroundColor=none;strokeWidth=1;fontFamily=Verdana;fontSize=8;align=center;" vertex="1" parent="77e6c97f196da883-3">
          <mxGeometry x="170" y="1160" width="380" height="60" as="geometry" />
        </mxCell>
        <mxCell id="O03f3KoqR2Wf6FTzpScs-32" style="edgeStyle=orthogonalEdgeStyle;rounded=0;orthogonalLoop=1;jettySize=auto;html=1;" edge="1" parent="77e6c97f196da883-3" source="O03f3KoqR2Wf6FTzpScs-26" target="O03f3KoqR2Wf6FTzpScs-27">
          <mxGeometry relative="1" as="geometry" />
        </mxCell>
        <mxCell id="O03f3KoqR2Wf6FTzpScs-26" value="&lt;pre style=&quot;background-color: rgb(255, 255, 255); font-family: Consolas; font-size: 16.5pt;&quot;&gt;&lt;pre style=&quot;font-family: Consolas; font-size: 16.5pt;&quot;&gt;postProcessBeanFactory(beanFactory)&lt;/pre&gt;&lt;/pre&gt;" style="rounded=1;whiteSpace=wrap;html=1;shadow=0;labelBackgroundColor=none;strokeWidth=1;fontFamily=Verdana;fontSize=8;align=center;" vertex="1" parent="77e6c97f196da883-3">
          <mxGeometry x="130" y="1550" width="440" height="60" as="geometry" />
        </mxCell>
        <mxCell id="O03f3KoqR2Wf6FTzpScs-41" style="edgeStyle=orthogonalEdgeStyle;rounded=0;orthogonalLoop=1;jettySize=auto;html=1;" edge="1" parent="77e6c97f196da883-3" source="O03f3KoqR2Wf6FTzpScs-27" target="O03f3KoqR2Wf6FTzpScs-33">
          <mxGeometry relative="1" as="geometry" />
        </mxCell>
        <mxCell id="O03f3KoqR2Wf6FTzpScs-27" value="&lt;pre style=&quot;background-color: rgb(255, 255, 255); font-family: Consolas; font-size: 16.5pt;&quot;&gt;&lt;pre style=&quot;font-family: Consolas; font-size: 16.5pt;&quot;&gt;invokeBeanFactoryPostProcessors(beanFactory)&lt;/pre&gt;&lt;/pre&gt;" style="rounded=1;whiteSpace=wrap;html=1;shadow=0;labelBackgroundColor=none;strokeWidth=1;fontFamily=Verdana;fontSize=8;align=center;" vertex="1" parent="77e6c97f196da883-3">
          <mxGeometry x="70" y="2010" width="560" height="60" as="geometry" />
        </mxCell>
        <mxCell id="O03f3KoqR2Wf6FTzpScs-42" style="edgeStyle=orthogonalEdgeStyle;rounded=0;orthogonalLoop=1;jettySize=auto;html=1;entryX=0.5;entryY=0;entryDx=0;entryDy=0;" edge="1" parent="77e6c97f196da883-3" source="O03f3KoqR2Wf6FTzpScs-33" target="O03f3KoqR2Wf6FTzpScs-34">
          <mxGeometry relative="1" as="geometry" />
        </mxCell>
        <mxCell id="O03f3KoqR2Wf6FTzpScs-33" value="&lt;pre style=&quot;background-color: rgb(255, 255, 255); font-family: Consolas; font-size: 16.5pt;&quot;&gt;&lt;pre style=&quot;font-family: Consolas; font-size: 16.5pt;&quot;&gt;registerBeanPostProcessors(beanFactory)&lt;/pre&gt;&lt;/pre&gt;" style="rounded=1;whiteSpace=wrap;html=1;shadow=0;labelBackgroundColor=none;strokeWidth=1;fontFamily=Verdana;fontSize=8;align=center;" vertex="1" parent="77e6c97f196da883-3">
          <mxGeometry x="70" y="2360" width="560" height="60" as="geometry" />
        </mxCell>
        <mxCell id="O03f3KoqR2Wf6FTzpScs-43" style="edgeStyle=orthogonalEdgeStyle;rounded=0;orthogonalLoop=1;jettySize=auto;html=1;" edge="1" parent="77e6c97f196da883-3" source="O03f3KoqR2Wf6FTzpScs-34" target="O03f3KoqR2Wf6FTzpScs-35">
          <mxGeometry relative="1" as="geometry" />
        </mxCell>
        <mxCell id="O03f3KoqR2Wf6FTzpScs-34" value="&lt;pre style=&quot;background-color: rgb(255, 255, 255); font-family: Consolas; font-size: 16.5pt;&quot;&gt;&lt;pre style=&quot;font-family: Consolas; font-size: 16.5pt;&quot;&gt;initMessageSource()&lt;/pre&gt;&lt;/pre&gt;" style="rounded=1;whiteSpace=wrap;html=1;shadow=0;labelBackgroundColor=none;strokeWidth=1;fontFamily=Verdana;fontSize=8;align=center;" vertex="1" parent="77e6c97f196da883-3">
          <mxGeometry x="60" y="2690" width="560" height="60" as="geometry" />
        </mxCell>
        <mxCell id="O03f3KoqR2Wf6FTzpScs-44" style="edgeStyle=orthogonalEdgeStyle;rounded=0;orthogonalLoop=1;jettySize=auto;html=1;" edge="1" parent="77e6c97f196da883-3" source="O03f3KoqR2Wf6FTzpScs-35" target="O03f3KoqR2Wf6FTzpScs-36">
          <mxGeometry relative="1" as="geometry" />
        </mxCell>
        <mxCell id="O03f3KoqR2Wf6FTzpScs-35" value="&lt;pre style=&quot;background-color: rgb(255, 255, 255); font-family: Consolas; font-size: 16.5pt;&quot;&gt;&lt;pre style=&quot;font-family: Consolas; font-size: 16.5pt;&quot;&gt;initApplicationEventMulticaster()&lt;/pre&gt;&lt;/pre&gt;" style="rounded=1;whiteSpace=wrap;html=1;shadow=0;labelBackgroundColor=none;strokeWidth=1;fontFamily=Verdana;fontSize=8;align=center;" vertex="1" parent="77e6c97f196da883-3">
          <mxGeometry x="60" y="2830" width="560" height="60" as="geometry" />
        </mxCell>
        <mxCell id="O03f3KoqR2Wf6FTzpScs-45" style="edgeStyle=orthogonalEdgeStyle;rounded=0;orthogonalLoop=1;jettySize=auto;html=1;" edge="1" parent="77e6c97f196da883-3" source="O03f3KoqR2Wf6FTzpScs-36" target="O03f3KoqR2Wf6FTzpScs-37">
          <mxGeometry relative="1" as="geometry" />
        </mxCell>
        <mxCell id="O03f3KoqR2Wf6FTzpScs-36" value="&lt;pre style=&quot;background-color: rgb(255, 255, 255); font-family: Consolas; font-size: 16.5pt;&quot;&gt;&lt;pre style=&quot;font-family: Consolas; font-size: 16.5pt;&quot;&gt;onRefresh()&lt;/pre&gt;&lt;/pre&gt;" style="rounded=1;whiteSpace=wrap;html=1;shadow=0;labelBackgroundColor=none;strokeWidth=1;fontFamily=Verdana;fontSize=8;align=center;" vertex="1" parent="77e6c97f196da883-3">
          <mxGeometry x="60" y="3040" width="560" height="60" as="geometry" />
        </mxCell>
        <mxCell id="O03f3KoqR2Wf6FTzpScs-46" style="edgeStyle=orthogonalEdgeStyle;rounded=0;orthogonalLoop=1;jettySize=auto;html=1;" edge="1" parent="77e6c97f196da883-3" source="O03f3KoqR2Wf6FTzpScs-37" target="O03f3KoqR2Wf6FTzpScs-38">
          <mxGeometry relative="1" as="geometry" />
        </mxCell>
        <mxCell id="O03f3KoqR2Wf6FTzpScs-37" value="&lt;pre style=&quot;background-color: rgb(255, 255, 255); font-family: Consolas; font-size: 16.5pt;&quot;&gt;&lt;pre style=&quot;font-family: Consolas; font-size: 16.5pt;&quot;&gt;registerListeners()&lt;/pre&gt;&lt;/pre&gt;" style="rounded=1;whiteSpace=wrap;html=1;shadow=0;labelBackgroundColor=none;strokeWidth=1;fontFamily=Verdana;fontSize=8;align=center;" vertex="1" parent="77e6c97f196da883-3">
          <mxGeometry x="60" y="3200" width="560" height="60" as="geometry" />
        </mxCell>
        <mxCell id="O03f3KoqR2Wf6FTzpScs-47" style="edgeStyle=orthogonalEdgeStyle;rounded=0;orthogonalLoop=1;jettySize=auto;html=1;" edge="1" parent="77e6c97f196da883-3" source="O03f3KoqR2Wf6FTzpScs-38" target="O03f3KoqR2Wf6FTzpScs-39">
          <mxGeometry relative="1" as="geometry" />
        </mxCell>
        <mxCell id="O03f3KoqR2Wf6FTzpScs-38" value="&lt;pre style=&quot;background-color: rgb(255, 255, 255); font-family: Consolas; font-size: 16.5pt;&quot;&gt;&lt;pre style=&quot;font-family: Consolas; font-size: 16.5pt;&quot;&gt;finishBeanFactoryInitialization(beanFactory)&lt;/pre&gt;&lt;/pre&gt;" style="rounded=1;whiteSpace=wrap;html=1;shadow=0;labelBackgroundColor=none;strokeWidth=1;fontFamily=Verdana;fontSize=8;align=center;" vertex="1" parent="77e6c97f196da883-3">
          <mxGeometry x="60" y="3350" width="560" height="60" as="geometry" />
        </mxCell>
        <mxCell id="O03f3KoqR2Wf6FTzpScs-48" style="edgeStyle=orthogonalEdgeStyle;rounded=0;orthogonalLoop=1;jettySize=auto;html=1;" edge="1" parent="77e6c97f196da883-3" source="O03f3KoqR2Wf6FTzpScs-39" target="O03f3KoqR2Wf6FTzpScs-40">
          <mxGeometry relative="1" as="geometry" />
        </mxCell>
        <mxCell id="O03f3KoqR2Wf6FTzpScs-39" value="&lt;pre style=&quot;background-color: rgb(255, 255, 255); font-family: Consolas; font-size: 16.5pt;&quot;&gt;&lt;pre style=&quot;font-family: Consolas; font-size: 16.5pt;&quot;&gt;finishRefresh()&lt;/pre&gt;&lt;/pre&gt;" style="rounded=1;whiteSpace=wrap;html=1;shadow=0;labelBackgroundColor=none;strokeWidth=1;fontFamily=Verdana;fontSize=8;align=center;" vertex="1" parent="77e6c97f196da883-3">
          <mxGeometry x="60" y="3540" width="560" height="60" as="geometry" />
        </mxCell>
        <mxCell id="O03f3KoqR2Wf6FTzpScs-40" value="&lt;pre style=&quot;background-color: rgb(255, 255, 255); font-family: Consolas; font-size: 16.5pt;&quot;&gt;&lt;pre style=&quot;font-family: Consolas; font-size: 16.5pt;&quot;&gt;resetCommonCaches()&lt;/pre&gt;&lt;/pre&gt;" style="rounded=1;whiteSpace=wrap;html=1;shadow=0;labelBackgroundColor=none;strokeWidth=1;fontFamily=Verdana;fontSize=8;align=center;" vertex="1" parent="77e6c97f196da883-3">
          <mxGeometry x="60" y="3740" width="560" height="60" as="geometry" />
        </mxCell>
        <mxCell id="O03f3KoqR2Wf6FTzpScs-59" style="edgeStyle=orthogonalEdgeStyle;rounded=0;orthogonalLoop=1;jettySize=auto;html=1;entryX=0.844;entryY=0.986;entryDx=0;entryDy=0;entryPerimeter=0;exitX=0.417;exitY=1.034;exitDx=0;exitDy=0;exitPerimeter=0;" edge="1" parent="77e6c97f196da883-3" source="O03f3KoqR2Wf6FTzpScs-49" target="O03f3KoqR2Wf6FTzpScs-3">
          <mxGeometry relative="1" as="geometry">
            <Array as="points">
              <mxPoint x="988" y="240" />
              <mxPoint x="990" y="240" />
              <mxPoint x="990" y="260" />
              <mxPoint x="432" y="260" />
            </Array>
          </mxGeometry>
        </mxCell>
        <mxCell id="O03f3KoqR2Wf6FTzpScs-49" value="&lt;pre style=&quot;background-color: rgb(255, 255, 255); font-family: Consolas; font-size: 16.5pt;&quot;&gt;&lt;pre style=&quot;font-family: Consolas; font-size: 16.5pt;&quot;&gt;initPropertySources()&lt;/pre&gt;&lt;pre style=&quot;font-family: Consolas; font-size: 16.5pt;&quot;&gt;啥也没做&lt;/pre&gt;&lt;/pre&gt;" style="rounded=1;whiteSpace=wrap;html=1;shadow=0;labelBackgroundColor=none;strokeWidth=1;fontFamily=Verdana;fontSize=8;align=center;" vertex="1" parent="77e6c97f196da883-3">
          <mxGeometry x="850" y="135" width="330" height="110" as="geometry" />
        </mxCell>
        <mxCell id="O03f3KoqR2Wf6FTzpScs-105" value="&lt;pre style=&quot;background-color: rgb(255, 255, 255); font-family: Consolas; font-size: 16.5pt;&quot;&gt;&lt;pre style=&quot;font-family: Consolas; font-size: 16.5pt;&quot;&gt;refreshBeanFactory()&lt;/pre&gt;&lt;/pre&gt;" style="rounded=1;whiteSpace=wrap;html=1;shadow=0;labelBackgroundColor=none;strokeWidth=1;fontFamily=Verdana;fontSize=8;align=center;" vertex="1" parent="77e6c97f196da883-3">
          <mxGeometry x="770" y="320" width="330" height="60" as="geometry" />
        </mxCell>
        <mxCell id="77e6c97f196da883-4" value="&lt;pre style=&quot;background-color: rgb(255, 255, 255); font-family: Consolas; font-size: 16.5pt;&quot;&gt;AbstractRefreshableApplicationContext&lt;/pre&gt;" style="swimlane;html=1;startSize=30;" parent="77e6c97f196da883-1" vertex="1">
          <mxGeometry x="1890" y="20" width="1880" height="6830" as="geometry" />
        </mxCell>
        <mxCell id="O03f3KoqR2Wf6FTzpScs-158" style="edgeStyle=orthogonalEdgeStyle;rounded=0;orthogonalLoop=1;jettySize=auto;html=1;" edge="1" parent="77e6c97f196da883-4" source="O03f3KoqR2Wf6FTzpScs-106" target="O03f3KoqR2Wf6FTzpScs-109">
          <mxGeometry relative="1" as="geometry" />
        </mxCell>
        <mxCell id="O03f3KoqR2Wf6FTzpScs-160" value="是" style="edgeLabel;html=1;align=center;verticalAlign=middle;resizable=0;points=[];" vertex="1" connectable="0" parent="O03f3KoqR2Wf6FTzpScs-158">
          <mxGeometry x="-0.3573" y="-1" relative="1" as="geometry">
            <mxPoint as="offset" />
          </mxGeometry>
        </mxCell>
        <mxCell id="O03f3KoqR2Wf6FTzpScs-163" style="edgeStyle=orthogonalEdgeStyle;rounded=0;orthogonalLoop=1;jettySize=auto;html=1;" edge="1" parent="77e6c97f196da883-4" source="O03f3KoqR2Wf6FTzpScs-106" target="O03f3KoqR2Wf6FTzpScs-161">
          <mxGeometry relative="1" as="geometry" />
        </mxCell>
        <mxCell id="O03f3KoqR2Wf6FTzpScs-106" value="&lt;pre style=&quot;background-color: rgb(255, 255, 255); font-family: Consolas; font-size: 16.5pt;&quot;&gt;hasBeanFactory()&lt;/pre&gt;" style="rhombus;whiteSpace=wrap;html=1;" vertex="1" parent="77e6c97f196da883-4">
          <mxGeometry x="160" y="290" width="300" height="120" as="geometry" />
        </mxCell>
        <mxCell id="O03f3KoqR2Wf6FTzpScs-159" style="edgeStyle=orthogonalEdgeStyle;rounded=0;orthogonalLoop=1;jettySize=auto;html=1;" edge="1" parent="77e6c97f196da883-4" source="O03f3KoqR2Wf6FTzpScs-109" target="O03f3KoqR2Wf6FTzpScs-157">
          <mxGeometry relative="1" as="geometry" />
        </mxCell>
        <mxCell id="O03f3KoqR2Wf6FTzpScs-109" value="&lt;pre style=&quot;background-color: rgb(255, 255, 255); font-family: Consolas; font-size: 16.5pt;&quot;&gt;&lt;pre style=&quot;font-family: Consolas; font-size: 16.5pt;&quot;&gt;destroyBeans()&lt;/pre&gt;&lt;/pre&gt;" style="rounded=1;whiteSpace=wrap;html=1;shadow=0;labelBackgroundColor=none;strokeWidth=1;fontFamily=Verdana;fontSize=8;align=center;" vertex="1" parent="77e6c97f196da883-4">
          <mxGeometry x="650" y="320" width="330" height="60" as="geometry" />
        </mxCell>
        <mxCell id="O03f3KoqR2Wf6FTzpScs-157" value="&lt;pre style=&quot;background-color: rgb(255, 255, 255); font-family: Consolas; font-size: 16.5pt;&quot;&gt;&lt;pre style=&quot;font-family: Consolas; font-size: 16.5pt;&quot;&gt;closeBeanFactory()&lt;/pre&gt;&lt;/pre&gt;" style="rounded=1;whiteSpace=wrap;html=1;shadow=0;labelBackgroundColor=none;strokeWidth=1;fontFamily=Verdana;fontSize=8;align=center;" vertex="1" parent="77e6c97f196da883-4">
          <mxGeometry x="650" y="450" width="330" height="60" as="geometry" />
        </mxCell>
        <mxCell id="O03f3KoqR2Wf6FTzpScs-166" style="edgeStyle=orthogonalEdgeStyle;rounded=0;orthogonalLoop=1;jettySize=auto;html=1;" edge="1" parent="77e6c97f196da883-4" source="O03f3KoqR2Wf6FTzpScs-161" target="O03f3KoqR2Wf6FTzpScs-165">
          <mxGeometry relative="1" as="geometry" />
        </mxCell>
        <mxCell id="O03f3KoqR2Wf6FTzpScs-171" style="edgeStyle=orthogonalEdgeStyle;rounded=0;orthogonalLoop=1;jettySize=auto;html=1;entryX=0;entryY=0.5;entryDx=0;entryDy=0;" edge="1" parent="77e6c97f196da883-4" source="O03f3KoqR2Wf6FTzpScs-161" target="O03f3KoqR2Wf6FTzpScs-170">
          <mxGeometry relative="1" as="geometry" />
        </mxCell>
        <mxCell id="O03f3KoqR2Wf6FTzpScs-161" value="&lt;pre style=&quot;background-color: rgb(255, 255, 255); font-family: Consolas; font-size: 16.5pt;&quot;&gt;&lt;pre style=&quot;font-family: Consolas; font-size: 16.5pt;&quot;&gt;createBeanFactory()&lt;/pre&gt;&lt;/pre&gt;" style="rounded=1;whiteSpace=wrap;html=1;shadow=0;labelBackgroundColor=none;strokeWidth=1;fontFamily=Verdana;fontSize=8;align=center;" vertex="1" parent="77e6c97f196da883-4">
          <mxGeometry x="145" y="640" width="330" height="60" as="geometry" />
        </mxCell>
        <mxCell id="O03f3KoqR2Wf6FTzpScs-165" value="&lt;pre style=&quot;background-color: rgb(255, 255, 255); font-family: Consolas; font-size: 16.5pt;&quot;&gt;&lt;pre style=&quot;font-family: Consolas; font-size: 16.5pt;&quot;&gt;loadBeanDefinitions(beanFactory)&lt;/pre&gt;&lt;/pre&gt;" style="rounded=1;whiteSpace=wrap;html=1;shadow=0;labelBackgroundColor=none;strokeWidth=1;fontFamily=Verdana;fontSize=8;align=center;" vertex="1" parent="77e6c97f196da883-4">
          <mxGeometry x="105" y="810" width="410" height="60" as="geometry" />
        </mxCell>
        <mxCell id="O03f3KoqR2Wf6FTzpScs-172" style="edgeStyle=orthogonalEdgeStyle;rounded=0;orthogonalLoop=1;jettySize=auto;html=1;entryX=0.75;entryY=1;entryDx=0;entryDy=0;" edge="1" parent="77e6c97f196da883-4" source="O03f3KoqR2Wf6FTzpScs-170" target="O03f3KoqR2Wf6FTzpScs-161">
          <mxGeometry relative="1" as="geometry">
            <Array as="points">
              <mxPoint x="1120" y="720" />
              <mxPoint x="392" y="720" />
            </Array>
          </mxGeometry>
        </mxCell>
        <mxCell id="O03f3KoqR2Wf6FTzpScs-170" value="&lt;pre style=&quot;background-color: rgb(255, 255, 255); font-family: Consolas; font-size: 16.5pt;&quot;&gt;&lt;pre style=&quot;font-family: Consolas; font-size: 16.5pt;&quot;&gt;&lt;span style=&quot;color:#000080;font-weight:bold;&quot;&gt;new &lt;/span&gt;DefaultListableBeanFactory(getInternalParentBeanFactory())&lt;/pre&gt;&lt;/pre&gt;" style="rounded=1;whiteSpace=wrap;html=1;shadow=0;labelBackgroundColor=none;strokeWidth=1;fontFamily=Verdana;fontSize=8;align=center;" vertex="1" parent="77e6c97f196da883-4">
          <mxGeometry x="680" y="640" width="800" height="60" as="geometry" />
        </mxCell>
        <mxCell id="77e6c97f196da883-5" value="&lt;pre style=&quot;background-color: rgb(255, 255, 255); font-family: Consolas; font-size: 16.5pt;&quot;&gt;PostProcessorRegistrationDelegate&lt;/pre&gt;" style="swimlane;html=1;startSize=30;" parent="77e6c97f196da883-1" vertex="1">
          <mxGeometry x="3770" y="20" width="1020" height="6830" as="geometry" />
        </mxCell>
        <mxCell id="77e6c97f196da883-34" style="edgeStyle=orthogonalEdgeStyle;rounded=1;html=1;labelBackgroundColor=none;startArrow=none;startFill=0;startSize=5;endArrow=classicThin;endFill=1;endSize=5;jettySize=auto;orthogonalLoop=1;strokeColor=#000000;strokeWidth=1;fontFamily=Verdana;fontSize=8;fontColor=#000000;" parent="77e6c97f196da883-5" source="77e6c97f196da883-15" edge="1">
          <mxGeometry relative="1" as="geometry">
            <mxPoint x="80" y="320" as="targetPoint" />
          </mxGeometry>
        </mxCell>
        <mxCell id="O03f3KoqR2Wf6FTzpScs-174" value="&lt;pre style=&quot;background-color: rgb(255, 255, 255); font-family: Consolas; font-size: 16.5pt;&quot;&gt;&lt;pre style=&quot;font-family: Consolas; font-size: 16.5pt;&quot;&gt;&lt;span style=&quot;font-style:italic;&quot;&gt;invokeBeanFactoryPostProcessors&lt;/span&gt;(beanFactory, getBeanFactoryPostProcessors())&lt;/pre&gt;&lt;/pre&gt;" style="rounded=1;whiteSpace=wrap;html=1;shadow=0;labelBackgroundColor=none;strokeWidth=1;fontFamily=Verdana;fontSize=8;align=center;" vertex="1" parent="77e6c97f196da883-5">
          <mxGeometry x="40" y="2010" width="960" height="60" as="geometry" />
        </mxCell>
        <mxCell id="77e6c97f196da883-6" value="Lane 5" style="swimlane;html=1;startSize=20;" parent="77e6c97f196da883-1" vertex="1">
          <mxGeometry x="4790" y="20" width="160" height="6830" as="geometry" />
        </mxCell>
        <mxCell id="77e6c97f196da883-37" style="edgeStyle=orthogonalEdgeStyle;rounded=1;html=1;labelBackgroundColor=none;startArrow=none;startFill=0;startSize=5;endArrow=classicThin;endFill=1;endSize=5;jettySize=auto;orthogonalLoop=1;strokeWidth=1;fontFamily=Verdana;fontSize=8" parent="77e6c97f196da883-6" target="77e6c97f196da883-21" edge="1">
          <mxGeometry relative="1" as="geometry">
            <mxPoint x="80" y="460" as="sourcePoint" />
          </mxGeometry>
        </mxCell>
        <mxCell id="77e6c97f196da883-38" style="edgeStyle=orthogonalEdgeStyle;rounded=1;html=1;labelBackgroundColor=none;startArrow=none;startFill=0;startSize=5;endArrow=classicThin;endFill=1;endSize=5;jettySize=auto;orthogonalLoop=1;strokeWidth=1;fontFamily=Verdana;fontSize=8" parent="77e6c97f196da883-6" source="77e6c97f196da883-21" edge="1">
          <mxGeometry relative="1" as="geometry">
            <mxPoint x="80" y="560" as="targetPoint" />
          </mxGeometry>
        </mxCell>
        <mxCell id="77e6c97f196da883-7" value="Lane 6" style="swimlane;html=1;startSize=20;" parent="77e6c97f196da883-1" vertex="1">
          <mxGeometry x="4950" y="20" width="160" height="6830" as="geometry" />
        </mxCell>
        <mxCell id="O03f3KoqR2Wf6FTzpScs-162" style="edgeStyle=orthogonalEdgeStyle;rounded=0;orthogonalLoop=1;jettySize=auto;html=1;entryX=0;entryY=0.5;entryDx=0;entryDy=0;" edge="1" parent="77e6c97f196da883-1" source="O03f3KoqR2Wf6FTzpScs-105" target="O03f3KoqR2Wf6FTzpScs-106">
          <mxGeometry relative="1" as="geometry" />
        </mxCell>
        <mxCell id="O03f3KoqR2Wf6FTzpScs-168" style="edgeStyle=orthogonalEdgeStyle;rounded=0;orthogonalLoop=1;jettySize=auto;html=1;" edge="1" parent="77e6c97f196da883-1" source="O03f3KoqR2Wf6FTzpScs-165" target="O03f3KoqR2Wf6FTzpScs-105">
          <mxGeometry relative="1" as="geometry">
            <Array as="points">
              <mxPoint x="1550" y="860" />
            </Array>
          </mxGeometry>
        </mxCell>
        <mxCell id="O03f3KoqR2Wf6FTzpScs-175" style="edgeStyle=orthogonalEdgeStyle;rounded=0;orthogonalLoop=1;jettySize=auto;html=1;entryX=0;entryY=0.5;entryDx=0;entryDy=0;" edge="1" parent="77e6c97f196da883-1" source="O03f3KoqR2Wf6FTzpScs-27" target="O03f3KoqR2Wf6FTzpScs-174">
          <mxGeometry relative="1" as="geometry" />
        </mxCell>
        <mxCell id="O03f3KoqR2Wf6FTzpScs-164" style="edgeStyle=orthogonalEdgeStyle;rounded=0;orthogonalLoop=1;jettySize=auto;html=1;" edge="1" parent="1" source="O03f3KoqR2Wf6FTzpScs-157">
          <mxGeometry relative="1" as="geometry">
            <mxPoint x="2270" y="410" as="targetPoint" />
          </mxGeometry>
        </mxCell>
      </root>
    </mxGraphModel>
  </diagram>
</mxfile>
